<mxfile host="app.diagrams.net" modified="2023-06-01T16:37:24.378Z" agent="Mozilla/5.0 (Windows NT 10.0; Win64; x64) AppleWebKit/537.36 (KHTML, like Gecko) Chrome/113.0.0.0 Safari/537.36" etag="WsDI4r37viXYi1fXKXKi" version="21.3.2" type="device">
  <diagram name="Page-1" id="dZoML2Zx6l9P9O03ALmX">
    <mxGraphModel dx="1134" dy="640" grid="1" gridSize="10" guides="1" tooltips="1" connect="1" arrows="1" fold="1" page="1" pageScale="1" pageWidth="850" pageHeight="1100" background="#4A3030" math="0" shadow="0">
      <root>
        <mxCell id="0" />
        <mxCell id="1" parent="0" />
        <mxCell id="tdB0jzjdTTwLOLydOA40-1" value="Gymnasium Details" style="swimlane;childLayout=stackLayout;horizontal=1;startSize=50;horizontalStack=0;rounded=1;fontSize=14;fontStyle=0;strokeWidth=2;resizeParent=0;resizeLast=1;shadow=0;dashed=0;align=center;arcSize=4;whiteSpace=wrap;html=1;fillColor=#60a917;fontColor=#ffffff;strokeColor=#2D7600;" parent="1" vertex="1">
          <mxGeometry x="30" y="235" width="110" height="120" as="geometry" />
        </mxCell>
        <mxCell id="tdB0jzjdTTwLOLydOA40-2" value="Gym-Name&lt;br&gt;Gym-Address&lt;br&gt;Gym-Tel-Number" style="align=left;strokeColor=none;fillColor=none;spacingLeft=4;fontSize=12;verticalAlign=top;resizable=0;rotatable=0;part=1;html=1;rounded=1;" parent="tdB0jzjdTTwLOLydOA40-1" vertex="1">
          <mxGeometry y="50" width="110" height="70" as="geometry" />
        </mxCell>
        <mxCell id="tdB0jzjdTTwLOLydOA40-3" value="Register" style="ellipse;whiteSpace=wrap;html=1;align=center;rounded=1;fillColor=#0050ef;fontColor=#ffffff;strokeColor=#001DBC;" parent="1" vertex="1">
          <mxGeometry x="35" y="515" width="100" height="40" as="geometry" />
        </mxCell>
        <mxCell id="tdB0jzjdTTwLOLydOA40-15" value="&lt;font color=&quot;#ff0000&quot;&gt;1.N&lt;/font&gt;" style="whiteSpace=wrap;html=1;align=center;rounded=1;strokeColor=none;fillColor=none;" parent="1" vertex="1">
          <mxGeometry x="140" y="260" width="30" height="40" as="geometry" />
        </mxCell>
        <mxCell id="tdB0jzjdTTwLOLydOA40-17" value="Gymnasium Member" style="swimlane;childLayout=stackLayout;horizontal=1;startSize=50;horizontalStack=0;rounded=1;fontSize=14;fontStyle=0;strokeWidth=2;resizeParent=0;resizeLast=1;shadow=0;dashed=0;align=center;arcSize=4;whiteSpace=wrap;html=1;fillColor=#60a917;fontColor=#ffffff;strokeColor=#2D7600;" parent="1" vertex="1">
          <mxGeometry x="213" y="480" width="137" height="150" as="geometry" />
        </mxCell>
        <mxCell id="tdB0jzjdTTwLOLydOA40-18" value="Member ID&lt;br&gt;Member firstName&lt;br&gt;Member lastName&lt;br&gt;Member Address&lt;br&gt;Member DateOfBirth&lt;br&gt;Member Gender" style="align=left;strokeColor=none;fillColor=none;spacingLeft=4;fontSize=12;verticalAlign=top;resizable=0;rotatable=0;part=1;html=1;rounded=1;" parent="tdB0jzjdTTwLOLydOA40-17" vertex="1">
          <mxGeometry y="50" width="137" height="100" as="geometry" />
        </mxCell>
        <mxCell id="tdB0jzjdTTwLOLydOA40-20" value="" style="endArrow=none;html=1;rounded=0;exitX=0.5;exitY=1;exitDx=0;exitDy=0;entryX=0.5;entryY=0;entryDx=0;entryDy=0;" parent="1" source="tdB0jzjdTTwLOLydOA40-2" target="tdB0jzjdTTwLOLydOA40-3" edge="1">
          <mxGeometry relative="1" as="geometry">
            <mxPoint x="470" y="430" as="sourcePoint" />
            <mxPoint x="90" y="460" as="targetPoint" />
          </mxGeometry>
        </mxCell>
        <mxCell id="tdB0jzjdTTwLOLydOA40-25" value="&lt;font color=&quot;#ff0000&quot;&gt;1.N&lt;/font&gt;" style="whiteSpace=wrap;html=1;align=center;rounded=1;strokeColor=none;fillColor=none;" parent="1" vertex="1">
          <mxGeometry x="85" y="355" width="40" height="50" as="geometry" />
        </mxCell>
        <mxCell id="tdB0jzjdTTwLOLydOA40-26" value="Coach details" style="swimlane;childLayout=stackLayout;horizontal=1;startSize=50;horizontalStack=0;rounded=1;fontSize=14;fontStyle=0;strokeWidth=2;resizeParent=0;resizeLast=1;shadow=0;dashed=0;align=center;arcSize=4;whiteSpace=wrap;html=1;fillColor=#60a917;fontColor=#ffffff;strokeColor=#2D7600;" parent="1" vertex="1">
          <mxGeometry x="630" y="235" width="110" height="125" as="geometry" />
        </mxCell>
        <mxCell id="tdB0jzjdTTwLOLydOA40-27" value="Coach firstName&lt;br&gt;Coach lastName&lt;br&gt;Coach Age&lt;br&gt;Coach Specialty" style="align=left;strokeColor=none;fillColor=none;spacingLeft=4;fontSize=12;verticalAlign=top;resizable=0;rotatable=0;part=1;html=1;rounded=1;" parent="tdB0jzjdTTwLOLydOA40-26" vertex="1">
          <mxGeometry y="50" width="110" height="75" as="geometry" />
        </mxCell>
        <mxCell id="tdB0jzjdTTwLOLydOA40-28" value="Update" style="ellipse;whiteSpace=wrap;html=1;align=center;rounded=1;fillColor=#0050ef;fontColor=#ffffff;strokeColor=#001DBC;" parent="1" vertex="1">
          <mxGeometry x="350" y="275" width="100" height="40" as="geometry" />
        </mxCell>
        <mxCell id="tdB0jzjdTTwLOLydOA40-29" value="" style="endArrow=none;html=1;rounded=0;entryX=-0.006;entryY=0.128;entryDx=0;entryDy=0;entryPerimeter=0;exitX=1;exitY=0.5;exitDx=0;exitDy=0;" parent="1" edge="1" target="tdB0jzjdTTwLOLydOA40-27" source="tdB0jzjdTTwLOLydOA40-28">
          <mxGeometry relative="1" as="geometry">
            <mxPoint x="460" y="294.5" as="sourcePoint" />
            <mxPoint x="530" y="290" as="targetPoint" />
            <Array as="points" />
          </mxGeometry>
        </mxCell>
        <mxCell id="tdB0jzjdTTwLOLydOA40-30" value="" style="endArrow=none;html=1;rounded=0;entryX=0;entryY=0.5;entryDx=0;entryDy=0;exitX=1.006;exitY=0.152;exitDx=0;exitDy=0;exitPerimeter=0;" parent="1" edge="1" target="tdB0jzjdTTwLOLydOA40-28" source="tdB0jzjdTTwLOLydOA40-2">
          <mxGeometry relative="1" as="geometry">
            <mxPoint x="150" y="295" as="sourcePoint" />
            <mxPoint x="190" y="290" as="targetPoint" />
          </mxGeometry>
        </mxCell>
        <mxCell id="tdB0jzjdTTwLOLydOA40-31" value="&lt;font color=&quot;#ff0000&quot;&gt;1.N&lt;/font&gt;" style="whiteSpace=wrap;html=1;align=center;rounded=1;strokeColor=none;fillColor=none;arcSize=50;" parent="1" vertex="1">
          <mxGeometry x="650" y="645" width="30" height="40" as="geometry" />
        </mxCell>
        <mxCell id="tdB0jzjdTTwLOLydOA40-32" value="&lt;font color=&quot;#ff0000&quot;&gt;1.1&lt;/font&gt;" style="whiteSpace=wrap;html=1;align=center;rounded=1;strokeColor=none;arcSize=0;fillColor=none;" parent="1" vertex="1">
          <mxGeometry x="690" y="355" width="30" height="35" as="geometry" />
        </mxCell>
        <mxCell id="tdB0jzjdTTwLOLydOA40-33" value="Session" style="swimlane;childLayout=stackLayout;horizontal=1;startSize=50;horizontalStack=0;rounded=1;fontSize=14;fontStyle=0;strokeWidth=2;resizeParent=0;resizeLast=1;shadow=0;dashed=0;align=center;arcSize=4;whiteSpace=wrap;html=1;fillColor=#60a917;fontColor=#ffffff;strokeColor=#2D7600;" parent="1" vertex="1">
          <mxGeometry x="630" y="677.5" width="110" height="105" as="geometry" />
        </mxCell>
        <mxCell id="tdB0jzjdTTwLOLydOA40-34" value="Type-Of-Sport&lt;br&gt;Session-Schedule&lt;br&gt;(Max 20)" style="align=left;strokeColor=none;fillColor=none;spacingLeft=4;fontSize=12;verticalAlign=top;resizable=0;rotatable=0;part=1;html=1;rounded=1;" parent="tdB0jzjdTTwLOLydOA40-33" vertex="1">
          <mxGeometry y="50" width="110" height="55" as="geometry" />
        </mxCell>
        <mxCell id="tdB0jzjdTTwLOLydOA40-45" value="&lt;font color=&quot;#ff0000&quot;&gt;1.N&lt;/font&gt;" style="whiteSpace=wrap;html=1;align=center;rounded=1;strokeColor=none;fillColor=none;" parent="1" vertex="1">
          <mxGeometry x="600" y="262.5" width="30" height="35" as="geometry" />
        </mxCell>
        <mxCell id="tdB0jzjdTTwLOLydOA40-48" value="Led" style="ellipse;whiteSpace=wrap;html=1;align=center;rounded=1;fillColor=#0050ef;fontColor=#ffffff;strokeColor=#001DBC;" parent="1" vertex="1">
          <mxGeometry x="635" y="540" width="100" height="40" as="geometry" />
        </mxCell>
        <mxCell id="tdB0jzjdTTwLOLydOA40-56" value="" style="endArrow=none;html=1;rounded=0;entryX=0;entryY=0.128;entryDx=0;entryDy=0;entryPerimeter=0;" parent="1" target="tdB0jzjdTTwLOLydOA40-18" edge="1">
          <mxGeometry relative="1" as="geometry">
            <mxPoint x="135" y="540" as="sourcePoint" />
            <mxPoint x="230" y="540" as="targetPoint" />
            <Array as="points">
              <mxPoint x="165" y="540" />
              <mxPoint x="210" y="540" />
            </Array>
          </mxGeometry>
        </mxCell>
        <mxCell id="tdB0jzjdTTwLOLydOA40-59" value="Accomodate" style="ellipse;whiteSpace=wrap;html=1;align=center;rounded=1;fillColor=#0050ef;fontColor=#ffffff;strokeColor=#001DBC;" parent="1" vertex="1">
          <mxGeometry x="231.5" y="710" width="100" height="40" as="geometry" />
        </mxCell>
        <mxCell id="tdB0jzjdTTwLOLydOA40-61" value="" style="endArrow=none;html=1;rounded=0;entryX=0.5;entryY=1;entryDx=0;entryDy=0;" parent="1" target="tdB0jzjdTTwLOLydOA40-27" edge="1" source="tdB0jzjdTTwLOLydOA40-48">
          <mxGeometry relative="1" as="geometry">
            <mxPoint x="685" y="490" as="sourcePoint" />
            <mxPoint x="560" y="540" as="targetPoint" />
            <Array as="points" />
          </mxGeometry>
        </mxCell>
        <mxCell id="tdB0jzjdTTwLOLydOA40-63" value="&lt;font color=&quot;#ff0000&quot;&gt;1.N&lt;/font&gt;" style="whiteSpace=wrap;html=1;align=center;rounded=1;strokeColor=none;fillColor=none;" parent="1" vertex="1">
          <mxGeometry x="280" y="620" width="30" height="30" as="geometry" />
        </mxCell>
        <mxCell id="Okbf7etq02Hx4nrPIe9W-4" value="" style="endArrow=none;html=1;rounded=0;exitX=0.5;exitY=1;exitDx=0;exitDy=0;entryX=0.5;entryY=0;entryDx=0;entryDy=0;" edge="1" parent="1" source="tdB0jzjdTTwLOLydOA40-18" target="tdB0jzjdTTwLOLydOA40-59">
          <mxGeometry relative="1" as="geometry">
            <mxPoint x="357" y="743" as="sourcePoint" />
            <mxPoint x="280" y="780" as="targetPoint" />
            <Array as="points" />
          </mxGeometry>
        </mxCell>
        <mxCell id="Okbf7etq02Hx4nrPIe9W-5" value="" style="endArrow=none;html=1;rounded=0;exitX=0;exitY=0.5;exitDx=0;exitDy=0;" edge="1" parent="1" source="tdB0jzjdTTwLOLydOA40-33">
          <mxGeometry relative="1" as="geometry">
            <mxPoint x="540" y="729.5" as="sourcePoint" />
            <mxPoint x="331.5" y="729.5" as="targetPoint" />
            <Array as="points" />
          </mxGeometry>
        </mxCell>
        <mxCell id="Okbf7etq02Hx4nrPIe9W-6" value="" style="endArrow=none;html=1;rounded=0;entryX=0.5;entryY=0;entryDx=0;entryDy=0;exitX=0.5;exitY=1;exitDx=0;exitDy=0;" edge="1" parent="1" source="tdB0jzjdTTwLOLydOA40-48" target="tdB0jzjdTTwLOLydOA40-33">
          <mxGeometry relative="1" as="geometry">
            <mxPoint x="685" y="600" as="sourcePoint" />
            <mxPoint x="560" y="580" as="targetPoint" />
            <Array as="points" />
          </mxGeometry>
        </mxCell>
        <mxCell id="Okbf7etq02Hx4nrPIe9W-7" value="&lt;h1&gt;&amp;nbsp;Entity relationship model.&lt;/h1&gt;" style="rounded=0;whiteSpace=wrap;html=1;fillColor=#D98D8D;" vertex="1" parent="1">
          <mxGeometry x="190" y="130" width="380" height="50" as="geometry" />
        </mxCell>
      </root>
    </mxGraphModel>
  </diagram>
</mxfile>
